<svg xmlns="http://www.w3.org/2000/svg" viewBox="0 0 408.96 63.93"><defs><style>.cls-1{fill:#2a7de1;}</style></defs><g id="图层_2" data-name="图层 2"><g id="图层_1-2" data-name="图层 1"><path d="M28.93,58.51l25.72-28H28.92V26h30a2.69,2.69,0,0,1,2.69,2.68h0a2.7,2.7,0,0,1-.71,1.82l-26,28.26H62.42v4.54H31a2.87,2.87,0,0,1-2.87-2.87h0A2.85,2.85,0,0,1,28.93,58.51Z"/><path d="M117.31,30.55H88.22v11.5h24.3v4.54H88.22V58.77h29.09v4.54H86.47a2.79,2.79,0,0,1-2.79-2.79V28.8A2.79,2.79,0,0,1,86.47,26h30.84Z"/><path d="M138.38,26h2.78a3.89,3.89,0,0,1,2.92,1.32l25.5,28.89V26h4.54v37.3h-2.53A3.89,3.89,0,0,1,168.67,62l-25.75-29.2V63.31h-4.54Z"/><path d="M282.59,26h2.78a3.89,3.89,0,0,1,2.92,1.32l25.5,28.89V26h4.54v37.3H315.8A3.89,3.89,0,0,1,312.88,62l-25.75-29.2V63.31h-4.54Z"/><path d="M233.36,45c0,10.75-7.09,18.34-17.22,18.34H200.22a2.79,2.79,0,0,1-2.79-2.79V28.8A2.79,2.79,0,0,1,200.22,26h15.92C226.27,26,233.36,33.84,233.36,45Zm-17.22,13.8c7.52,0,12.68-5.47,12.68-13.8,0-8.7-5.22-14.42-12.68-14.42H202V58.77Z"/><path d="M255,26h4.54v37.3H255Z"/><polygon class="cls-1" points="0 63.93 4.2 63.93 4.2 20.82 20.81 4.2 382.94 4.2 382.94 0.01 19.07 0.01 0 19.08 0 63.93"/><polygon class="cls-1" points="361.47 44.89 361.47 49.07 374.27 49.07 375.64 49.07 375.64 54.23 375.64 63.31 379.82 63.31 379.82 44.89 361.47 44.89"/><path d="M374.1,50.61h-.37c-1.92,4.81-6.73,8.78-13.82,8.78-9.44,0-15.47-5.78-15.47-14.79s6-14.73,15.47-14.73c6.84,0,11.75,2.61,14.55,7.21l3.85-2.43c-3.48-5.72-10.19-9.32-18.4-9.32-11.62,0-20,8-20,19.27s8.39,19.33,20,19.33a17.38,17.38,0,0,0,14.19-7.21Z"/><path d="M392.86,1.74H390V0h7.93V1.74h-2.95v8.64h-2.07Z"/><path d="M399.55,0h2.3l1.76,4.86c.23.64.42,1.33.63,2h.07c.23-.66.41-1.35.63-2L406.67,0H409V10.38h-1.89V6.05c0-1,.16-2.42.27-3.4h-.07l-.84,2.43-1.6,4.36h-1.19L402,5.08l-.83-2.43h-.05c.1,1,.26,2.42.26,3.4v4.33h-1.86Z"/></g></g></svg>